<?xml version="1.0" standalone="no"?><!DOCTYPE svg PUBLIC "-//W3C//DTD SVG 1.1//EN" "http://www.w3.org/Graphics/SVG/1.1/DTD/svg11.dtd"><svg t="1629692663571" class="icon" viewBox="0 0 1024 1024" version="1.1" xmlns="http://www.w3.org/2000/svg" p-id="1213" xmlns:xlink="http://www.w3.org/1999/xlink" width="200" height="200"><defs><style type="text/css"></style></defs><path d="M660.48 599.04l209.92 209.92-66.56 66.56-209.92-215.04v-35.84l-10.24-10.24c-25.6 20.48-51.2 35.84-81.92 51.2-30.72 10.24-61.44 15.36-97.28 15.36-51.2 0-97.28-10.24-138.24-35.84-40.96-25.6-76.8-56.32-102.4-97.28-25.6-46.08-35.84-92.16-35.84-143.36 0-51.2 10.24-97.28 35.84-138.24 25.6-40.96 56.32-76.8 102.4-102.4 40.96-25.6 92.16-35.84 138.24-35.84s97.28 10.24 138.24 35.84c40.96 25.6 76.8 56.32 97.28 102.4 25.6 40.96 35.84 87.04 35.84 138.24 0 35.84-5.12 66.56-15.36 97.28-10.24 30.72-25.6 56.32-51.2 81.92l10.24 10.24h40.96z m-256 0c35.84 0 66.56-10.24 97.28-25.6s51.2-40.96 71.68-71.68c15.36-30.72 25.6-61.44 25.6-97.28s-10.24-66.56-25.6-97.28c-15.36-30.72-40.96-51.2-71.68-71.68-30.72-15.36-61.44-20.48-97.28-20.48s-66.56 5.12-92.16 25.6C281.6 256 256 281.6 240.64 307.2s-25.6 61.44-25.6 97.28 10.24 66.56 25.6 97.28 40.96 51.2 71.68 71.68c25.6 15.36 61.44 25.6 92.16 25.6z" p-id="1214"></path></svg>